<svg width="16" height="20" viewBox="0 0 16 20" fill="none" xmlns="http://www.w3.org/2000/svg">
<path d="M15.491 16.168L14.6462 5.47652C14.5938 4.78767 14.0135 4.24828 13.3257 4.24828H11.6569V6.73152C11.6569 7.03904 11.409 7.28797 11.1028 7.28797C10.797 7.28797 10.5488 7.03904 10.5488 6.73152V4.24828H5.45147V6.73152C5.45147 7.03904 5.20324 7.28797 4.89741 7.28797C4.5912 7.28797 4.34334 7.03904 4.34334 6.73152V4.24828H2.67453C1.98677 4.24828 1.40647 4.78767 1.35404 5.47504L0.508918 16.1695C0.443553 17.026 0.739412 17.8785 1.32042 18.5084C1.90146 19.1383 2.72515 19.5 3.58025 19.5H12.42C13.2751 19.5 14.0988 19.1383 14.6799 18.5084C15.2609 17.8785 15.5567 17.026 15.491 16.168ZM7.20357 13.7332L7.22121 13.7488C7.22121 13.7413 7.22121 13.7488 7.23886 13.7645C7.22121 13.7488 7.22121 13.7488 7.20357 13.7332L7.23886 13.7645C7.23886 13.7645 7.22121 13.7488 7.20357 13.7332Z" fill="#212121"/>
<path d="M8.00241 0.5C5.986 0.5 4.34564 2.14779 4.34564 4.17288V4.24817H5.45378V4.17288C5.45378 2.76136 6.59697 1.61287 8.00244 1.61287C9.40792 1.61287 10.5511 2.76136 10.5511 4.17288V4.24817H11.6592V4.17288C11.6592 2.14779 10.0188 0.5 8.00241 0.5Z" fill="#212121"/>
</svg>
