<svg width="16" height="16" viewBox="0 0 16 16" fill="none" xmlns="http://www.w3.org/2000/svg">
<path d="M8 15.0312C4.12292 15.0312 0.96875 11.8771 0.96875 8C0.96875 4.12292 4.12292 0.96875 8 0.96875C11.8771 0.96875 15.0312 4.12292 15.0312 8C15.0312 11.8771 11.8771 15.0312 8 15.0312ZM8 2.02344C4.70451 2.02344 2.02344 4.70451 2.02344 8C2.02344 11.2955 4.70451 13.9766 8 13.9766C11.2955 13.9766 13.9766 11.2955 13.9766 8C13.9766 4.70451 11.2955 2.02344 8 2.02344Z" fill="white"/>
<ellipse cx="7.99993" cy="8.00017" rx="7.71429" ry="7.71429" fill="#474747"/>
<path d="M8 11.4799C7.70872 11.4799 7.47266 11.2439 7.47266 10.9526V7.4032C7.47266 7.11206 7.70872 6.87585 8 6.87585C8.29128 6.87585 8.52734 7.11206 8.52734 7.4032V10.9526C8.52734 11.2439 8.29128 11.4799 8 11.4799Z" fill="white"/>
<path d="M8.74396 5.43301C8.74396 5.8439 8.4108 6.17706 7.99991 6.17706C7.58902 6.17706 7.25586 5.8439 7.25586 5.43301C7.25586 5.02199 7.58902 4.68896 7.99991 4.68896C8.4108 4.68896 8.74396 5.02199 8.74396 5.43301Z" fill="white"/>
</svg>
